<?xml version='1.0' encoding='utf-8'?>
<svg xmlns="http://www.w3.org/2000/svg" width="1522.4mm" height="1522.4mm" version="1.1" viewBox="0 0 1522.4 1522.4"><g transform="translate(6558.1 4614.6)"><g transform="translate(0 -291.04)"><path d="m-6558.1-4323.6h1522.4v1522.4h-1522.4z" fill="#fff" stop-color="#000000" stroke-linecap="square" stroke-width="7.8" style="paint-order:markers stroke fill"/><path d="m-6509.9-4275.4h1426.1v1426.1h-1426.1z" fill="#909575" stop-color="#000000" stroke-linecap="square" stroke-width="7.8" style="paint-order:markers stroke fill"/><g transform="matrix(1.6355 0 0 1.6355 2023.6 3129.8)" stroke-width=".61144"><path d="m-4999.1-3810-0.049 7.6269c-0.055 8.5696-0.3355 20.646-0.6242 26.834-1.393 29.868-1.6215 36.262-1.9725 55.234l-0.3768 20.379-3.1569-4.2576c-5.6743-7.6528-13.724-12.892-23.537-15.32-5.7369-1.4195-11.33-1.5237-12.751-0.2377-1.3078 1.1829-1.3763 7.5049-0.1282 11.753 3.987 13.574 17.325 22.382 35.462 23.418 6.0931 0.3479 5.3654-0.4982 6.4988 7.5576 0.6777 4.8161 3.731 19.997 4.1625 20.695h0.01c0.1485 0.2401 4.2189 0.4372 9.045 0.4372h8.7746l-0.2997-1.7839c-1.608-9.5685-2.344-21.037-2.6934-41.99l-0.231-13.86h1.8557c4.8142 0 10.947-3.7685 19.549-12.011 19.45-18.639 40.496-53.13 41.956-68.761 0.6149-6.5847-1.5171-9.7953-6.5035-9.7953-5.1353 0-12.17 4.5945-21.849 14.271-12.485 12.482-25.163 30.449-32.728 46.382l-2.3456 4.9398-0.021-17.016c-0.01-9.3585 0.2106-21.956 0.4858-27.994 0.2754-6.0368 0.6747-14.988 0.8873-19.888l0.1798-4.1409c-6.7044-0.4752-13.917-1.2399-19.599-2.4722z" fill="#495621"/><path d="m-4432.6-3856.9c-6.8096 0.9095-13.568 1.7668-18.974 2.3533-1.6929 11.333-5.0391 30.671-7.4538 42.419-3.4633 16.85-5.7733 25.43-15.474 57.493-3.334 11.019-6.5488 21.764-7.1443 23.877-0.9965 3.5355-1.1131 3.7105-1.4619 2.1952-2.5246-10.969-6.8116-19.718-15.304-31.234-2.9057-3.9397-6.7815-6.9132-9.0119-6.9132-2.2299 0-4.4323 1.5569-6.0192 4.2565-1.4629 2.4899-1.5276 2.9172-1.5276 9.74 0 6.3648 0.1644 7.5933 1.5007 11.376 2.2699 6.4243 11.819 26.313 16.174 33.684 2.1238 3.5947 4.6275 8.0593 5.564 9.9208l1.7022 3.3843-1.8743 7.5934c-2.3523 9.5296-4.4283 16.246-7.5665 24.471h-5e-4l-2.4603 6.4498h17.478l0.5421-1.5555c0.3143-0.9015 1.2828-1.9099 2.3043-2.3988 0.969-0.4636 4.1083-2.6265 6.9763-4.8059 2.9954-2.2761 7.667-5.1302 10.978-6.7066 14.726-7.012 14.671-6.978 20.904-12.869 3.2746-3.095 8.4946-7.5399 11.599-9.8779 9.5983-7.2289 14.609-13.17 19.979-23.688 4.3144-8.4493 5.6044-14.708 3.7651-18.264-1.5496-2.9965-3.2972-2.2586-16.708 7.0528-5.0875 3.5325-12.98 8.9985-17.54 12.147-13.947 9.6303-23.251 17.716-28.013 24.348-1.0211 1.4218-1.9358 2.5057-2.0308 2.4107-0.096-0.096 0.7932-3.1214 1.9766-6.7231 1.1833-3.6016 3.8937-12.354 6.0234-19.447 2.1296-7.0945 5.2374-17.221 6.906-22.505 1.6685-5.283 4.2785-14.669 5.8002-20.858s2.8825-11.647 3.0215-12.129c0.323-1.1121 3.2796-1.9973 10.011-2.9962 7.0791-1.0505 12.031-2.5912 17.668-5.4979 9.9117-5.1113 15.077-12.01 21.137-28.228 0.846-2.2642 1.8705-4.6043 2.2764-5.1997 1.1814-1.7324 0.9124-3.5268-0.6336-4.2313-1.8602-0.8475-11.872 1.9883-18.663 5.286-7.6991 3.7385-17.369 11.448-23.95 19.093-1.7713 2.0581-3.2204 3.5411-3.2204 3.2954 0-0.2455 0.8645-4.1425 1.9213-8.6594 3.5363-15.114 7.8848-43.981 8.8227-58.059z" fill="#495621"/><path d="m-4581.9-3945.9c-4.0879 1.4814-9.6486 2.8715-15.933 2.7564 0.2838 2.0459 0.762 4.7233 1.2738 6.8249 2.5492 10.466 3.0661 16.32 3.0871 34.58 0.016 19.402-1.3286 48.24-2.9827 63.946-1.4425 13.612-1.4468 25.252-0.021 34.718 0.6024 4.0001 1.5698 10.427 2.1497 14.282 1.7731 11.792 2.3127 23.355 2.1343 45.684l-0.1701 21.132-3.3915-4.4437c-5.5639-7.2919-15.781-16.084-23.878-20.548-3.3689-1.8572-7.6255-2.1984-9.6583-0.7746-2.8757 2.0142-0.9052 8.3787 4.7625 15.384 5.1941 6.4184 12.371 10.699 24.404 14.549 3.9659 1.2696 7.4835 2.6391 7.8155 3.0428 0.3321 0.4037 0.7507 4.01 0.9312 8.0145 0.5962 13.26 3.0458 23.412 9.8165 40.678h0.011l4.0153 10.24h18.241l-1.5704-9.1095c-1.699-9.8543-1.9528-10.946-5.9898-25.745-2.8033-10.277-4.7664-20.053-6.2823-31.286-0.4889-3.6229-1.6215-10.593-2.5167-15.49l-1.6273-8.9033 2.2056-4.2701c1.3688-2.6505 4.4153-6.8605 8.0321-11.099 8.4649-9.9212 23.85-30.637 32.023-43.12 4.319-6.5972 10.336-18.402 12.03-23.602 1.5533-4.7683 3.4739-14.652 3.2685-16.81-0.1678-1.7569-0.2985-1.8624-2.527-2.0221-2.8096-0.2029-6.7316 1.4597-10.908 4.6245-5.5597 4.2123-19.942 17.389-23.041 21.11-8.7945 10.558-15.204 23.312-18.357 36.528-1.1778 4.9364-3.7575 21.739-3.8674 25.181-0.1745 5.5088-0.9561-4.6279-1.8816-24.404-1.0335-22.09-0.7553-34.06 1.123-48.307 2.3515-17.836 4.0788-38.931 4.1578-50.79l0.039-6.0384 6.1355-4.0055c15.374-10.038 20.423-15.734 26.765-30.194 2.8662-6.5351 6.6106-16.973 6.7267-18.753 0.1285-1.9621-1.5182-2.0557-3.4122-0.1933-0.867 0.8526-4.2622 3.0028-7.5452 4.778-3.283 1.7751-7.4828 4.2976-9.3328 5.6058-6.6873 4.7287-12.735 12.694-17.77 23.406l-2.1316 4.5356-0.031-2.9032c-0.091-8.5155-3.8109-30.862-6.3201-38.788z" fill="#495621"/><path d="m-4984.8-3975.3c-3.8869-0.011-7.9212 0.226-11.842 0.7224-10.393 1.3158-16.266 3.5933-21.811 8.46-1.3324 1.1694-3.2873 2.5642-4.3439 3.099-6.8906 3.4871-11.433 10.32-18.8 28.28-6.6141 16.123-6.8077 17.257-7.3701 43.178-0.4096 18.883 0.7675 27.531 5.1366 37.738 6.5049 15.197 18.34 25.175 40.436 34.089 0 0 23.888 7.1541 39.236 8.0693 2.8767-0.1568 4.4263-0.5519 7.7799-1.697 9.2701-3.1656 16.404-7.7694 23.644-15.258 11.487-11.881 16.646-25.385 21.46-56.171 1.6063-10.272 1.7323-24.709 0.279-31.984-1.9976-9.9999-6.1331-20.009-10.486-25.375-0.9792-1.2076-2.6436-3.5539-3.699-5.2142-2.389-3.7583-4.8314-5.9237-9.6221-8.5323-2.0552-1.1194-5.7365-3.3391-8.1814-4.933-7.508-4.8947-19.111-10.698-24.812-12.41-4.4542-1.3376-10.522-2.0433-17.001-2.0614z" fill="#e4d9c3"/><path d="m-4458.8-3981.3c-0.8684-0.025-1.735-0.022-2.6081 0.01-5.1735 0.1633-6.225 0.3751-9.4521 1.9043-2.2973 1.0885-4.2122 2.4699-5.2142 3.7615-0.8709 1.1228-3.2243 3.966-5.2291 6.3185-7.2391 8.494-11.523 17.879-14.909 32.66-2.1464 9.3685-2.263 10.336-2.2624 18.662 6e-4 7.2645 0.2131 9.6306 1.2294 13.69 1.4513 5.7968 5.1625 13.894 8.5318 18.613 2.7301 3.8239 9.8107 10.785 13.675 13.444 6.0423 4.1571 14.591 7.4085 21.395 8.1375 0 0 17.871-0.833 22.642-3.3238 13.003-7.1259 20.726-16.686 27.985-34.647 5.8725-14.529 6.7442-27.486 2.622-38.967-2.8845-8.0344-7.1918-15.081-12.852-21.026 0 0-9.4229-7.9674-18.813-12.2-1.4351-0.5223-2.6535-0.9615-5.1708-1.8981-9.3107-3.4642-15.49-4.9611-21.569-5.1335z" fill="#e4d9c3"/><path d="m-4600.7-4020.2c-9.7091 0.4992-17.227 5.1812-25.701 15.689-3.2641 4.0473-4.3242 7.0003-5.131 14.295-0.9603 8.6829 0.4304 15.483 4.9175 24.058 5.4145 10.345 13.735 16.195 25.005 17.582l1.6465 0.2026s12.834 0.034 18.163-1.739c10.918-4.151 18.124-12.615 20.31-23.857 2.5295-13.009-3.9548-28.465-16.027-38.202-7.0107-5.655-11.405-7.5154-18.878-7.9913-1.4859-0.095-2.9175-0.1087-4.3047-0.037z" fill="#e4d9c3"/><path d="m-5106.7-4021.9c-1.7127 4.4607-3.586 11.106-5.7072 20.327-1.5567 6.7679-4.2781 18.11-6.0471 25.204-1.7691 7.0934-4.1151 17.094-5.2132 22.221-1.0983 5.1273-2.0679 9.3941-2.1549 9.4811s-0.4586-2.873-0.8252-6.5779c-1.3304-13.448-3.1317-20.071-8.6057-31.647-6.334-13.394-16.268-27.508-19.362-27.508-2.0331 0-2.7465 1.7575-3.574 8.8031-3.1476 26.799 0.055 47.186 9.1034 57.956 2.3008 2.7386 8.9562 9.13 14.378 13.808 1.5173 1.309 3.2477 2.3161 3.9796 2.3161 1.6781 0 1.6809-0.054-0.585 12.724-2.8991 16.35-5.057 31.162-6.8926 47.311-1.8594 16.359-2.6152 21.468-4.965 33.55-3.4117 17.541-3.865 21.969-4.129 40.343-1.0985 76.424-0.9985 83.339 1.4387 99.763 1.5756 10.618 2.3165 13.579 7.9675 31.834l1.9104 6.1748h19.104l-1.0211-3.7052c-2.712-9.8399-6.9803-36.062-7.2642-44.627l-0.1514-4.5992 3.6861-2.7827c2.0278-1.5308 6.6494-4.3305 10.27-6.2219 8.6183-4.5018 12.344-7.3115 17.016-12.833 16.193-19.137 23.345-33.505 25.212-50.653 0.3286-3.0188 0.8695-10.419 1.2025-16.444 0.5545-10.036 0.5283-11.01-0.3137-11.626-1.0555-0.7718-2.1493-0.4429-4.4204 1.3296-0.883 0.6891-3.5195 2.4981-5.8581 4.0178-3.2428 2.1084-6.5658 5.2429-13.997 13.202-12.077 12.935-15.851 17.428-20.213 24.066-5.0345 7.6599-7.7034 12.878-10.744 21.01l-2.7146 7.258 0.278-25.524c0.2933-26.913 0.5981-33.168 2.8195-57.908 1.84-20.492 3.252-32.689 5.224-45.121 3.0084-18.963 5.409-34.897 7.3856-49.014 3.4867-24.912 6.5752-38.262 15.68-67.788 2.4204-7.8493 5.8865-19.087 7.7029-24.974 0.8499-2.755 1.6485-5.2273 2.3105-7.2063-6.1285-1.3716-16.588-3.8541-21.91-5.9407z" fill="#495621"/><path d="m-4793.2-4084.8c-2.4392-0.035-4.4504 0.3844-5.334 1.2681-1.1142 1.1134-1.1155 1.1683-0.1493 5.6761 2.8989 13.528 6.7002 22.73 14.797 35.829 2.8025 4.5331 6.9198 11.204 9.1498 14.823 5.2196 8.4708 9.3614 12.652 33.621 33.945 3.3815 2.9674 7.8446 7.034 9.9183 9.0345l3.7703 3.637-3.0799 22.527c-5.0705 37.091-6.6917 51.187-8.937 77.691-1.2046 14.216-1.3721 47.622-0.2868 57.085 1.2749 11.114 3.4059 24.674 5.6292 35.816 1.7551 8.7956 12.154 56.127 13.477 61.338 0.226 0.89-0.485 0.215-2.0237-1.9208-4.4684-6.2036-8.6489-10.984-15.696-17.947-8.6922-8.5897-13.917-12.946-22.421-18.695-9.7508-6.5912-26.555-18.519-26.918-19.107-0.4041-0.6451-2.4812-0.6385-3.5223 0.02-0.6572 0.4223-0.775 2.443-0.6568 12.204 0.079 6.447 0.496 14.12 0.9297 17.094 2.1041 14.431 11.951 34.154 22.017 44.1 6.3668 6.2902 17.811 13.307 28.822 17.672 2.3121 0.9168 7.6226 2.6808 11.801 3.9202 8.9468 2.6536 12.333 3.8527 17.319 6.1345l3.684 1.6862 1.4594 4.4571c0.8027 2.4512 2.8427 8.1 4.533 12.553l3.0794 8.0864h9.4857c5.2168 0 9.4853-0.1281 9.4853-0.2837 0-0.1558-1.4948-5.4046-3.3218-11.664-3.8231-13.098-12.708-47.33-15.633-60.232-1.095-4.8301-2.0337-10.511-2.0847-12.625l-0.093-3.8421 6.7939-12.625c3.7367-6.9435 9.6952-17.07 13.242-22.504 12.117-18.566 15.334-25.026 20.088-40.335 2.6779-8.6248 5.4731-21.455 4.963-22.784-0.5237-1.3646-1.8111-0.9638-5.9852 1.8625-2.1848 1.4792-6.1731 4.0932-8.863 5.8084-2.6899 1.7156-6.36 4.5188-8.1556 6.2301-11.45 10.91-26.504 44.962-26.803 60.627-0.1253 6.5573-0.7749 5.8288-2.5864-2.9011-5.3385-25.726-6.709-38.369-7.0812-65.327l-0.292-21.141 4.0463-1.5524c4.5158-1.7331 10.201-4.9114 14.75-8.2449 5.1723-3.7912 18.302-14.332 20.128-16.16 6.9738-6.9796 13.869-17.633 16.759-25.894 1.0921-3.121 2.1824-11.184 1.6872-12.475-0.5781-1.5066-2.2491-1.8774-4.1263-0.9162-4.4215 2.2641-19.241 12.53-23.47 16.256-9.621 8.4799-20.442 20.143-24.7 26.623-2.2275 3.3896-4.0821 6.1064-4.1191 6.0374-0.1224-0.2199 1.2772-31.586 1.9037-42.664 0.6523-11.532 2.1392-29.145 3.8696-45.832 1.7109-16.499 3.1498-32.601 4.6607-52.145 0.8516-11.016 1.9196-22.712 2.775-30.917-6.0274-2.2993-12.697-4.9401-18.628-7.5246-0.4343 10.635-1.8867 26.782-3.9254 42.535-0.4477 3.4594-0.8177 6.5473-0.8387 6.8616-0.014 0.3145-0.7273-2.1457-1.5859-5.4664-2.7446-10.615-5.0599-15.781-12.292-27.426-5.9347-9.5558-11.861-17.325-20.239-26.531-10.194-11.203-18.024-17.114-26.891-20.301-2.5967-0.933-5.4641-1.4223-7.9034-1.4572z" fill="#495621"/><path d="m-5065.3-4207c-13.48 0.01-21.567 1.2138-32.636 4.8679-3.7352 1.2332-5.9441 1.6201-9.0568 1.6201-7.0685-0.019-12.894 3.0736-20.876 11.078-8.0766 8.1013-13.77 17.731-20.459 34.614-8.965 22.628-11.816 34.168-13.113 53.092-1.3742 20.044 1.6145 32.682 10.528 44.51 8.835 11.724 23.213 21.458 41.545 28.122l2.5172 0.9152s19.446 6.6914 29.275 8.6755c7.4488 1.2851 16.606 1.0736 23.069-0.5648 12.874-3.2633 29.031-13.62 39.567-25.363 18.781-20.932 28.703-46.882 28.703-75.067 0-25.304-5.8388-45.943-17.303-61.163-13.533-17.965-31.544-25.357-61.76-25.336z" fill="#e4d9c3"/><path d="m-4430.5-4246.6c-8.0939 4.2172-16.743 8.5041-23.469 11.3 0.335 0.7863 0.6283 1.5443 0.9916 2.3182 10.336 22.015 14.298 36.68 21.351 79.042 4.7902 28.768 5.6073 35.755 6.3546 54.339 0.3033 7.5472 0.7992 18.786 1.1018 24.974 0.5213 10.669 0.6703 17.176 0.5793 25.249l-0.041 3.5677-1.4025-3.0184c-0.7716-1.6605-3.0842-5.9831-5.1376-9.6056-2.0542-3.6229-5.2518-9.4277-7.1061-12.9-5.1697-9.6799-9.2283-13.705-14.701-14.58-2.1857-0.3494-2.3277-0.284-3.2256 1.4816-0.5164 1.0155-2.2662 3.7528-3.8887 6.0828-2.7505 3.9512-2.9497 4.4533-2.9497 7.4595 0 4.2721 1.7437 10.903 3.9662 15.083 2.5562 4.8081 6.747 8.7689 15.194 14.358 4.8608 3.2166 9.1921 6.6571 12.758 10.134l5.3991 5.2642-0.557 14.272c-0.3065 7.8493-1.0585 18.714-1.6713 24.145-0.2415 2.1406-0.3847 3.3612-0.5632 4.9222l12.384 5.1599c0.018-0.2136 0.023-0.2267 0.041-0.4418 0.5131-6.1473 1.5866-13.803 2.7322-19.486 2.4854-12.332 3.2062-17.051 5.1965-34.06 0.9184-7.8491 1.9432-16.247 2.2774-18.662 1.2344-8.921 1.2228-34.335-0.023-52.694-1.4719-21.682-2.3281-29.711-4.9775-46.656-1.9725-12.616-4.4013-31.972-4.4013-35.078 0-1.3388 1.7448-3.3187 9.1343-10.363 4.4192-4.2128 6.8937-8.3553 8.1339-13.617 1.8295-7.7611 0.3946-23.03-2.2784-24.248-1.8004-0.8202-3.6275 0.6169-6.5727 5.1697-3.5662 5.5127-7.2195 13.478-9.5266 20.771l-1.9952 6.3077-1.2738-5.2101c-1.1449-4.6838-3.196-11.904-9.9472-35.02-0.5772-1.9763-1.2542-4.0251-1.8847-5.7625z" fill="#495621"/><path d="m-4671.8-4272.9c-18.904-0.088-49.766 15.109-49.766 15.109-18.011 12.454-25.549 21.158-39.141 45.204-9.4876 16.783-14.344 28.284-16.867 39.937-3.4347 15.868-2.7452 33.319 1.8882 47.789 2.0857 6.5138 8.0232 17.995 12.138 23.471 7.2775 9.6848 18.952 20.015 34.097 30.172 14.013 10.058 30.519 19.433 45.015 22.136 1.9513 0.2914 3.9783 0.5416 6.1753 0.7374 1.4844 0.096 2.7674 0.2188 3.8861 0.3623 2.9142 0.2682 6.0399 0.5534 8.1897 0.7632 3.1699 0.3098 9.7151 0.5764 14.545 0.5964 14.999 0.057 25.28-1.6296 40.344-6.6172 5.283-1.7493 11.582-3.4861 13.997-3.8597 7.6254-1.1798 11.072-2.5418 16.864-6.6657 7.7844-5.5432 17.438-15.04 20.739-20.404 4.7242-7.6764 8.6344-20.031 9.3292-29.475 0.2554-3.4718 0.7751-9.5318 1.155-13.467 0.5962-6.1762 0.5637-8.5567-0.2383-17.388-1.1181-12.313-1.8668-16.813-5.0033-30.071-2.6425-11.17-3.9349-14.985-7.4388-21.952-3.1973-6.3574-13.6-23.699-16.651-27.758-3.7479-4.9858-10.916-11.553-17.636-16.157-3.8954-2.6687-9.0103-7.0138-14.542-12.354-8.8774-8.5697-12.558-11.381-18.3-13.978-9.1803-4.1518-17.596-5.6771-31.125-5.6461-5.5851 0.013-10.428-0.1976-10.763-0.4687-0.2939-0.01-0.5909-0.015-0.8909-0.016z" fill="#e4d9c3"/><path d="m-4919.2-4248.8c-1.0368 0.4062-10.41 4.062-18.486 6.6244 0.4119 0.8593 0.8826 1.7606 1.3193 2.5012 2.9998 5.0869 7.1435 13.749 9.4842 19.82 2.3553 6.1108 3.5501 9.8252 7.152 22.23 1.0955 3.7738 3.5543 11.925 5.4638 18.114 8.8429 28.662 13.475 47.01 20.025 79.315 2.6931 13.283 6.3861 30.966 8.2067 39.296 4.7819 21.875 7.04 36.92 7.984 53.193l0.3023 5.2141-1.0686-2.8752c-2.4545-6.6035-4.5373-9.6264-11.271-16.361-10.159-10.162-16.953-14.749-25.273-17.069-3.4097-0.9499-23.044-1.7604-25.816-1.0646-3.0756 0.772-2.879 3.4548 0.9699 13.218 3.1421 7.9713 7.2992 15.784 11.038 20.746 3.9636 5.26 12.836 14.186 17.786 17.893 8.1306 6.089 19.24 11.124 29.23 13.246 3.17 0.6736 6.0226 1.2905 6.3401 1.3695 0.6293 0.1575 2.5143 24.972 3.8138 50.212 1.0283 19.974 1.8072 54.728 2.2143 98.8 0.441 47.76 1.0991 72.483 2.388 89.744 1.3199 17.602 1.8458 32.519 1.2996 36.456l-0.4123 2.974-2.0015-2.974c-4.0935-6.0817-10.684-11.458-16.558-13.507-4.1153-1.4359-18.113-1.3924-24.174 0.075-7.6886 1.8612-8.0298 3.4541-2.0851 9.756 4.2624 4.5183 12.845 10.387 22.588 15.444 8.5208 4.4228 11.894 5.4356 17.305 5.1981 2.6154-0.1146 4.1035 0.029 4.1031 0.3964-8e-4 0.317-0.5934 4.7629-1.3173 9.88-0.7235 5.117-1.4521 10.601-1.62 12.186l-0.3054 2.8804h25.13l0.2961-2.3326c0.896-7.0614 1.5021-29.141 1.5911-58.045 0.1023-32.911-0.011-35.804-2.1208-54.378-1.3302-11.708-2.9619-40.486-2.6153-46.13l0.324-5.2746 2.8055-1.3922c4.1765-2.0721 21.264-13.969 27.231-18.96 9.3813-7.8455 17.204-18.617 25.194-34.7 6.9019-13.889 10.166-25.228 11.882-41.268 0.4621-4.3171 0.9601-8.193 1.1054-8.613 0.3989-1.1463-1.2761-3.3532-2.5451-3.3532-0.6198 0-2.8655 1.6461-5.0643 3.7124-2.1731 2.0418-8.3016 7.5879-13.619 12.324-5.3177 4.7366-13.384 12.514-17.924 17.283-18.685 19.624-25.692 29.406-30.846 43.066l-2.1157 5.6074-0.3111-2.4366c-0.1709-1.34-0.573-6.3885-0.8935-11.219-0.3208-4.8302-1.1804-16.315-1.9104-25.523-1.195-15.068-1.9473-26.677-2.695-41.579-0.2157-4.3015-0.1268-5.0772 0.5845-5.0772 2.5284 0 24.488-18.89 31.118-26.769 10.886-12.937 16.823-25.008 16.823-34.206 0-3.6915-0.8534-4.8917-3.4783-4.8917-2.4312 0-4.0402 0.9814-13.936 8.4972-16.679 12.669-28.285 26.315-31.494 37.034l-0.7317 2.4438-0.3886-1.895c-0.2137-1.0421-0.6607-7.9463-0.9933-15.343-1.5814-35.163-2.1844-42.148-5.7831-66.964-2.3811-16.42-6.3276-45.856-6.3066-47.112 0.01-0.5118 1.2367-1.6437 2.7859-2.5632 3.3191-1.9696 7.7715-6.431 13.225-13.252 2.2071-2.7604 5.9721-7.3297 8.367-10.154 5.5964-6.6012 8.7084-11.403 13.468-20.784 6.1266-12.074 8.3521-20.25 8.1923-30.108-0.051-3.1706-0.2879-4.2638-1.1013-5.0772-0.5702-0.5701-1.274-1.0367-1.5642-1.0367-1.3024 0-15.707 10.264-19.774 14.09-9.8545 9.2704-21.275 26.617-25.165 38.225-0.8913 2.6593-1.7276 4.9424-1.8563 5.071-0.1295 0.1296-0.7852-2.881-1.4567-6.6906l-1.2211-6.9262 3.6602-10.769c2.0131-5.9233 5.0185-13.857 6.6792-17.63 4.0381-9.177 8.7216-22.229 10.04-27.982 0.5895-2.5725 1.9665-7.7648 3.0598-11.538 0.6775-2.3387 1.2962-4.9493 1.7234-7.0999-5.5385-0.3167-11.98-1.3639-17.978-3.9961-0.9629 2.953-2.1976 6.4426-3.2819 9.1752-0.3594 0.9056-1.1312 4.3635-1.7152 7.6842-0.584 3.321-2.7541 12.336-4.8224 20.034l-3.7605 13.996-1.1291-3.8421c-0.6209-2.1132-2.7399-9.4172-4.7093-16.231-4.4881-15.528-6.3626-20.757-14.046-39.187-6.489-15.564-8.9168-21.959-13.16-34.66z" fill="#495621"/><path d="m-4840.5-4298.5c-4.5478-0.1721-9.6756 0.3673-12.45 1.4387-3.2927 1.2713-8.6079 5.15-9.5989 7.0037-0.3612 0.676-2.1759 2.3673-4.0328 3.7585-13.49 10.107-25.99 31.104-25.99 43.658 0 9.4428 4.306 15.868 16.681 24.887 0 0 19.677 12.561 30.291 13.549 2.7916-0.5011 5.9726-1.4725 8.3224-2.6588 5.3787-2.715 11.618-7.8065 19.254-15.714 8.271-8.5647 13.6-15.374 16.322-20.859 6.6358-13.368 3.737-26.48-8.7601-39.634-7.8207-8.2311-16.783-13.447-25.793-15.013-1.2785-0.2221-2.7298-0.3586-4.2457-0.416z" fill="#e4d9c3"/><path d="m-4707.6-4354.7c-6.6655 4.8481-18.707 11.138-26.715 15.136 0.3212 0.575 0.6116 1.0829 1.0124 1.8294 3.7818 7.0437 9.0835 18.552 10.322 22.406 0.8655 2.6936 3.5479 13.448 3.3549 13.448-0.054 0-1.6584-1.9802-3.5652-4.4007-5.0125-6.3641-11.811-12.591-16.276-14.908-4.4152-2.2909-27.59-10.221-30.406-10.404-3.7319-0.243-4.8983 0.047-5.8151 1.4465-1.3341 2.0359-0.235 5.6145 3.4039 11.086 7.88 11.847 17.404 17.96 40.458 25.969 6.0815 2.1118 12.165 4.3952 13.518 5.073 2.7592 1.3819 2.9646 1.8486 3.9202 8.9168 0.436 3.2261 0.7077 4.8452 1.0568 7.1923 5.807-2.3478 12.786-4.4469 19.507-6.2027-0.044-0.7017-0.1099-1.46-0.2387-2.2061-0.3014-1.746-0.8223-5.768-1.1571-8.9379-0.646-6.1127-2.3072-16.04-3.6742-21.955-0.4535-1.9623-1.0329-6.7791-1.2883-10.704-0.3114-4.7831-0.9124-8.6734-1.8221-11.801-0.7466-2.566-1.8568-6.7653-2.4675-9.3313-0.6108-2.5663-1.9957-7.7279-3.0773-11.471-0.02-0.071-0.03-0.112-0.051-0.1819z" fill="#495621"/><path d="m-5003.2-4464c-4.0093 0-7.891 0.3153-10.459 0.9323-10.454 2.5116-18.558 7.0185-24.981 13.893-4.6024 4.9259-6.4138 8.0501-10.639 18.343-4.4344 10.803-6.1644 14.199-13.616 26.722-17.574 29.54-24.277 47.32-24.97 66.253-0.3574 9.756 0.3215 15.215 4.023 32.358 3.7638 17.432 5.6718 22.811 10.981 30.956 4.9901 7.656 13.078 15.001 20.78 18.875 9.785 4.9206 25.004 7.8108 48.302 9.1721 8.9147 0.5211 44.71 0.7731 57.852 0.5219 6.6128-1.7343 24.477-6.5665 29.79-9.5529 8.6367-6.3811 14.368-15.298 19.872-30.916 4.738-13.446 6.8019-23.952 7.2977-37.144 0.573-15.248-1.1197-26.61-5.9293-39.794-4.3593-11.95-5.4486-16.966-6.7944-31.287-1.4455-15.385-2.5315-20.469-6.18-28.932-8.4435-19.583-26.866-33.806-48.292-37.281-3.3847-0.5489-10.094-0.9447-18.251-1.0754-9.1683-0.1473-14.25-0.475-17.565-1.1338-3.0763-0.6108-7.2128-0.9137-11.222-0.9095z" fill="#e4d9c3"/><path d="m-4514.9-4461.7c-7.0837 0.129-13.548 1.6763-19.479 4.6555-2.3322 1.1717-6.5559 2.7913-9.386 3.5993-13.52 3.8604-23.359 9.8281-43.949 26.658-18.836 15.396-25.406 23.279-29.538 35.438-3.1318 9.214-3.8365 23.724-2.3999 49.401 1.1352 20.287 2.6924 28.535 7.151 37.874 7.3899 15.479 23.171 29.041 42.046 36.133 2.1131 0.7941 8.6589 2.9492 14.546 4.7894 5.8867 1.8402 12.556 4.1479 14.82 5.1288 3.8838 1.682 6.0937 2.9569 19.485 11.234 12.218 7.5515 23.652 9.8354 37.39 7.4662 0 0 28.774-8.8007 44.899-24.037 0.3086-0.2915 0.6072-0.5653 0.9007-0.8304 4.4953-4.7362 8.7408-10.098 12.22-15.588 4.2113-6.6473 6.8375-13.144 8.0284-19.869 0.842-4.7545 0.6848-19.179-0.3059-28.03-0.5384-4.8086-1.0193-16.312-1.2857-30.738-0.4854-26.305-0.4919-26.346-5.2147-36.227-4.5213-9.4589-10.763-17.563-19.733-25.622-2.7465-2.4673-9.3161-8.6274-14.599-13.69-10.741-10.291-14.621-13.553-21.394-17.981-8.5181-5.5702-16.199-8.2599-26.908-9.4227-2.501-0.2716-4.9318-0.3861-7.293-0.3431z" fill="#e4d9c3"/><path d="m-4758.9-4474.8c-7.2248 0.042-13.812 1.7025-20.376 4.9842-2.2852 1.1425-3.9429 1.5699-6.087 1.5699-3.779 0-10.2 1.6473-15.682 4.0231-17.269 7.4831-29.227 22.942-34.37 44.434-3.902 16.304-2.429 32.894 4.1042 46.226 5.3684 10.956 12.318 17.025 25.408 22.191 6.5718 2.5931 27.997 9.301 34.434 10.779 12.99 2.9846 22.755 2.2009 34.117-2.7383 12.552-7.6235 32.299-21.558 32.299-21.558 10.698-8.6529 17.907-18.434 21.766-29.531 1.3987-4.0203 1.5276-5.063 1.5276-12.35 0-7.2914-0.1284-8.325-1.5271-12.326-2.1569-6.1706-6.3846-14.161-10.639-20.109-4.8855-6.8285-13.88-16.037-19.769-20.238-5.1189-3.6518-14.239-8.2704-20.998-10.635-9.1168-3.1896-16.981-4.7646-24.206-4.7222z" fill="#e4d9c3"/><path d="m-5075.2-4144.3c7.8497 0.075 15.209 2.633 19.818 7.1536 5.6254 5.518 7.743 14.911 5.4818 24.32-0.2902 1.2076-2.802 6.7596-5.5821 12.338-5.5963 11.23-7.3819 13.512-12.384 15.833-2.6529 1.2306-3.9716 1.4599-9.138 1.5886-10.293 0.2559-15.467-2.3301-20.854-10.424-4.5453-6.8299-6.2804-12.927-6.3014-22.08-0.017-9.4896 2.4819-16.414 7.7287-21.419 3.6634-3.4944 7.3612-5.3124 13.3-6.5391 2.642-0.5457 5.3132-0.7962 7.9298-0.771z" fill="#e8c35a"/><path d="m-4785.1-4423.7c1.4244 0.058 2.7526 0.2 3.8732 0.4335 4.1925 0.8736 13.468 5.6544 16.839 8.6796 6.4636 5.7989 6.1728 15.401-0.6599 21.792-3.0344 2.8384-6.128 4.335-10.716 5.1831-13.95 2.5786-29.305-4.4743-32.598-14.973-0.3642-1.1597-0.5673-3.7829-0.4511-5.8291 0.3572-6.3214 4.2977-11.124 11.279-13.746 3.0184-1.1337 8.1602-1.7149 12.433-1.5405z" fill="#e8c35a"/><path d="m-4842.3-4266.7c5.4713-0.013 6.6968 0.1572 9.1979 1.2796 5.5974 2.5114 8.5642 7.5849 8.5432 14.614-0.013 4.7121-1.1098 8.1134-3.7207 11.535-1.5021 1.9694-7.3876 5.2224-11.787 6.5154-5.3574 1.5748-13.997 0.8545-18.7-1.5591-4.7051-2.4147-6.233-5.0438-6.212-10.738 0.019-7.6722 2.9745-14.397 7.7055-17.531 4.8956-3.2426 8.0119-4.0951 14.973-4.1161z" fill="#e8c35a"/><path d="m-4997.2-4361.7c0.8122-0.017 1.6208-0.01 2.42 0.023 2.1313 0.085 4.1981 0.3456 6.0973 0.7933 7.4594 1.7582 14.86 7.4349 17.936 13.757 1.414 2.9057 1.572 3.7974 1.572 8.7255 0 4.9219-0.2118 6.0777-2.0231 11.188-2.4927 7.0327-4.8128 10.966-8.3778 14.204-3.5871 3.2577-6.7738 4.608-15.019 6.3675-7.3263 1.5632-12.056 1.7549-16.065 0.6496-3.6581-1.0085-12.545-5.8215-13.726-7.4342-0.9702-1.3246-2.7378-8.5161-3.9145-15.927-1.5684-9.8769 5.7391-23.542 15.339-28.683 4.2078-2.2527 10.076-3.5465 15.761-3.6633z" fill="#e8c35a"/><path d="m-4501.6-4383.3c3.4467 0.043 6.6466 0.5768 9.192 1.6333 4.106 1.7041 10.535 9.0101 13.894 15.79 2.6674 5.3832 2.9314 6.4341 3.2424 12.892 0.2845 5.9127 0.095 7.7648-1.1981 11.649-2.049 6.1579-4.6265 10.045-9.8681 14.885-5.0166 4.632-10.357 7.3859-17.1 8.8137-7.9973 1.6951-14.564 0.9648-21.808-2.4251-7.8731-3.6843-13.692-11.292-16.39-21.431-1.4313-5.3774-1.6596-16.891-0.4103-20.676 1.5506-4.6986 10.274-11.287 23.047-17.409 5.2251-2.5039 11.654-3.7935 17.399-3.7211z" fill="#e8c35a"/><path d="m-4658.8-4193c9.2218 0.099 19.338 3.3431 25.72 8.6971 8.5358 7.1606 12.756 16.552 12.654 28.152-0.058 6.6125-1.5482 11.882-5.6821 20.102-5.6481 11.23-14.102 18.78-24.91 22.246-3.3907 1.0874-6.0349 1.4153-12.574 1.5568-8.8415 0.1922-8.7592 0.2016-14.53-1.6614-9.987-3.2234-19.517-12.804-22.926-23.049-3.4912-10.491-0.458-21.694 9.756-36.031 7.4496-10.458 15.445-16.866 23.739-19.026 2.7039-0.7042 5.6785-1.0204 8.7525-0.9875z" fill="#e8c35a"/><path d="m-4448-3936.8c0.7359-0.01 1.4805 0.01 2.2324 0.056 7.8113 0.4873 13.238 3.8625 16.752 10.418 1.6477 3.0743 1.8663 4.002 2.0635 8.7131 0.186 4.4663 0.044 5.6696-0.9271 7.8657-2.4428 5.522-6.8156 9.4429-12.18 10.921-11.784 3.2467-24.176-0.9219-27.682-9.3121-1.1167-2.6724-2.076-10.456-1.647-13.364 1.3012-8.8208 10.35-15.159 21.388-15.298z" fill="#e8c35a"/><path d="m-4598.4-3993.7c9.4835-0.01 14.346 3.3853 15.297 10.672 0.5794 4.4375-3.137 11.019-7.3835 13.074v5e-4c-4.2964 2.0794-11.622 2.0095-15.801-0.1514-3.9518-2.0437-6.3368-7.3701-5.9965-13.393 0.2622-4.6426 1.5761-6.6053 5.8006-8.6728 2.7079-1.3236 3.7718-1.5291 8.0828-1.5291z" fill="#e8c35a"/><path d="m-4981.5-3916.9c6.223 0.014 12.357 2.0117 16.334 5.9883 3.7775 3.7775 5.2075 7.4253 6.5479 16.7 1.2209 8.4484 0.5969 12.881-2.3595 16.757-2.6547 3.4805-6.5741 5.201-14.121 6.1954-3.4139 0.4502-6.3463 0.7933-6.5164 0.7623-1.8077-0.3283-3.9001-1.0129-5.2565-1.7198-0.9098-0.4743-3.0426-1.2658-4.7398-1.7591-10.351-3.0092-15.781-13.099-13.337-24.782 1.1211-5.3577 3.1126-9.0573 6.5831-12.229 4.3305-3.9577 10.642-5.9273 16.865-5.9133z" fill="#e8c35a"/></g></g></g></svg>